<?xml version="1.0" standalone="no"?>
<!DOCTYPE svg PUBLIC "-//W3C//DTD SVG 20010904//EN"
 "http://www.w3.org/TR/2001/REC-SVG-20010904/DTD/svg10.dtd">
<svg version="1.0" xmlns="http://www.w3.org/2000/svg"
 width="260.000000pt" height="260.000000pt" viewBox="0 0 260.000000 260.000000"
 preserveAspectRatio="xMidYMid meet">
<metadata>
Created by potrace 1.14, written by Peter Selinger 2001-2017
</metadata>
<g transform="translate(0.000000,260.000000) scale(0.100000,-0.100000)"
fill="#000000" stroke="none">
<path d="M263 1678 c3 -830 3 -844 25 -921 54 -194 116 -303 241 -427 79 -79
113 -104 196 -147 164 -85 337 -123 560 -123 327 0 581 89 759 265 161 159
246 357 267 625 5 63 9 442 9 843 l0 727 -1030 0 -1031 0 4 -842z m1008 515
c-6 -10 -97 -139 -204 -288 l-193 -270 125 -5 126 -5 5 -375 c5 -340 7 -377
23 -402 53 -77 194 -75 239 4 10 17 14 114 18 398 l5 375 138 3 c76 1 137 6
135 10 -2 4 -92 132 -200 283 -109 152 -198 279 -198 283 0 3 154 5 343 4
l342 -3 0 -645 c0 -723 0 -728 -72 -873 -111 -222 -385 -333 -736 -297 -304
31 -479 165 -554 425 -16 54 -18 129 -21 728 l-3 667 346 0 c326 0 345 -1 336
-17z"/>
</g>
</svg>
